<!DOCTYPE svg PUBLIC "-//W3C//DTD SVG 1.1//EN" "http://www.w3.org/Graphics/SVG/1.1/DTD/svg11.dtd">

<!-- Uploaded to: SVG Repo, www.svgrepo.com, Transformed by: SVG Repo Mixer Tools -->
<svg fill="#ffffff" height="800px" width="800px" version="1.1" id="Layer_1" xmlns="http://www.w3.org/2000/svg" xmlns:xlink="http://www.w3.org/1999/xlink" viewBox="0 0 512 512" xml:space="preserve">

<g id="SVGRepo_bgCarrier" stroke-width="0"/>

<g id="SVGRepo_tracerCarrier" stroke-linecap="round" stroke-linejoin="round"/>

<g id="SVGRepo_iconCarrier"> <g> <g> <path d="M451.702,243.311h-72.539c7.032-9.862,11.188-21.911,11.188-34.92V60.298C390.351,27.049,363.302,0,330.053,0 c-7.008,0-12.689,5.681-12.689,12.689s5.681,12.689,12.689,12.689c19.256,0,34.92,15.665,34.92,34.92v148.093 c0,19.255-15.664,34.92-34.92,34.92H181.947c-19.248,0-34.907-15.665-34.907-34.92V60.298c0-19.255,15.659-34.92,34.907-34.92 h68.977c7.008,0,12.689-5.681,12.689-12.689S257.933,0,250.924,0h-68.977c-33.241,0-60.285,27.049-60.285,60.298v148.093 c0,13.009,4.154,25.058,11.185,34.92H60.298C27.049,243.311,0,270.36,0,303.609v148.093C0,484.951,27.049,512,60.298,512h148.093 c19.338,0,36.566-9.16,47.608-23.359C267.038,502.839,284.262,512,303.596,512h148.106C484.951,512,512,484.951,512,451.702 V303.609C512,270.36,484.951,243.311,451.702,243.311z M243.311,451.702c0,19.255-15.665,34.92-34.92,34.92H60.298 c-19.255,0-34.92-15.665-34.92-34.92V303.609c0-19.255,15.665-34.92,34.92-34.92h121.649h26.444 c19.255,0,34.92,15.665,34.92,34.92V451.702z M486.622,451.702c0,19.255-15.665,34.92-34.92,34.92H303.596 c-19.248,0-34.907-15.665-34.907-34.92V303.609c0-19.255,15.659-34.92,34.907-34.92h26.456h121.649 c19.256,0,34.92,15.665,34.92,34.92V451.702z"/> </g> </g> <g> <g> <path d="M292.481,0h-5.076c-7.008,0-12.689,5.681-12.689,12.689s5.681,12.689,12.689,12.689h5.076 c7.008,0,12.689-5.681,12.689-12.689S299.489,0,292.481,0z"/> </g> </g> <g> <g> <path d="M318.156,194.346L267.819,65.134c-0.032-0.081-0.072-0.155-0.105-0.235c-0.086-0.208-0.18-0.414-0.277-0.617 c-0.086-0.183-0.174-0.363-0.268-0.539c-0.096-0.18-0.201-0.355-0.306-0.53c-0.11-0.185-0.222-0.371-0.341-0.548 c-0.107-0.16-0.222-0.313-0.336-0.468c-0.131-0.176-0.261-0.354-0.4-0.523c-0.124-0.151-0.256-0.294-0.388-0.44 c-0.142-0.157-0.283-0.315-0.433-0.464c-0.143-0.147-0.298-0.287-0.453-0.426c-0.148-0.133-0.294-0.269-0.448-0.395 c-0.166-0.137-0.34-0.265-0.514-0.393c-0.159-0.117-0.315-0.234-0.478-0.344c-0.175-0.117-0.357-0.226-0.538-0.335 c-0.179-0.107-0.358-0.213-0.541-0.312c-0.173-0.093-0.35-0.178-0.529-0.263c-0.208-0.099-0.416-0.194-0.629-0.283 c-0.077-0.032-0.15-0.072-0.228-0.103c-0.098-0.038-0.197-0.062-0.294-0.098c-0.219-0.08-0.44-0.154-0.664-0.221 c-0.185-0.056-0.371-0.108-0.557-0.155c-0.212-0.053-0.425-0.1-0.641-0.143c-0.198-0.039-0.396-0.075-0.594-0.104 c-0.208-0.03-0.416-0.055-0.626-0.076c-0.204-0.02-0.407-0.037-0.61-0.047c-0.208-0.01-0.416-0.013-0.626-0.013 c-0.204,0-0.407,0.003-0.61,0.013c-0.208,0.01-0.416,0.028-0.626,0.048c-0.204,0.02-0.409,0.043-0.612,0.074 c-0.202,0.03-0.404,0.066-0.605,0.107c-0.212,0.042-0.421,0.089-0.631,0.141c-0.188,0.047-0.376,0.099-0.562,0.156 c-0.223,0.067-0.443,0.141-0.662,0.221c-0.098,0.036-0.197,0.06-0.294,0.098c-0.079,0.03-0.151,0.07-0.228,0.103 c-0.213,0.088-0.423,0.184-0.631,0.283c-0.178,0.085-0.355,0.17-0.528,0.263c-0.184,0.099-0.363,0.204-0.542,0.312 c-0.181,0.109-0.363,0.218-0.538,0.335c-0.162,0.109-0.32,0.226-0.477,0.344c-0.174,0.129-0.348,0.256-0.514,0.393 c-0.154,0.126-0.301,0.261-0.448,0.395c-0.155,0.141-0.311,0.279-0.458,0.426c-0.148,0.148-0.289,0.306-0.431,0.463 c-0.132,0.146-0.264,0.289-0.388,0.442c-0.14,0.169-0.269,0.346-0.4,0.523c-0.114,0.155-0.23,0.308-0.336,0.468 c-0.119,0.178-0.23,0.362-0.34,0.547c-0.105,0.176-0.211,0.352-0.307,0.532c-0.094,0.176-0.181,0.357-0.268,0.538 c-0.098,0.204-0.19,0.409-0.278,0.618c-0.033,0.08-0.074,0.154-0.105,0.235l-50.337,129.212c-2.544,6.53,0.688,13.885,7.218,16.43 c1.514,0.59,3.071,0.869,4.602,0.869c5.077,0,9.872-3.069,11.826-8.087l11.972-30.733h53.082l11.972,30.733 c1.954,5.017,6.748,8.087,11.826,8.087c1.532,0,3.09-0.279,4.602-0.869C317.468,208.231,320.7,200.875,318.156,194.346z M239.346,147.446L256,104.694l16.654,42.752H239.346z"/> </g> </g> <g> <g> <path d="M168.097,377.671c0.175-0.169,0.355-0.33,0.527-0.502c8.502-8.5,13.183-19.799,13.183-31.813 c0-24.811-20.184-44.995-44.995-44.995H99.57c-7.008,0-12.689,5.681-12.689,12.689v64.612v64.6 c0,7.008,5.681,12.689,12.689,12.689h37.242c12.014,0,23.312-4.681,31.802-13.172c8.508-8.489,13.193-19.79,13.193-31.823 C181.808,397.298,176.543,385.853,168.097,377.671z M150.68,423.823c-3.708,3.708-8.632,5.749-13.868,5.749h-24.553v-39.222 h24.553c10.816,0,19.617,8.795,19.617,19.604C156.43,415.198,154.392,420.12,150.68,423.823z M150.68,359.224 c-3.708,3.708-8.632,5.749-13.868,5.749h-24.553v-39.234h24.553v0c10.816,0,19.617,8.801,19.617,19.617 C156.43,350.591,154.388,355.516,150.68,359.224z"/> </g> </g> <g> <g> <path d="M413.28,393.955c-7.008,0-12.689,5.681-12.689,12.689c0,12.643-10.286,22.929-22.929,22.929 c-12.65,0-22.942-10.286-22.942-22.929v-57.976c0-12.643,10.292-22.929,22.942-22.929c12.643,0,22.929,10.286,22.929,22.929 c0,7.008,5.681,12.689,12.689,12.689c7.008,0,12.689-5.681,12.689-12.689c0-26.637-21.67-48.307-48.307-48.307 c-26.644,0-48.32,21.67-48.32,48.307v57.976c0,26.637,21.677,48.307,48.32,48.307c26.637,0,48.307-21.67,48.307-48.307 C425.969,399.635,420.288,393.955,413.28,393.955z"/> </g> </g> </g>

</svg>