<?xml version="1.0" standalone="no"?>
<!DOCTYPE svg PUBLIC "-//W3C//DTD SVG 20010904//EN"
 "http://www.w3.org/TR/2001/REC-SVG-20010904/DTD/svg10.dtd">
<svg version="1.0" xmlns="http://www.w3.org/2000/svg"
 width="300.000000pt" height="300.000000pt" viewBox="0 0 300.000000 300.000000"
 preserveAspectRatio="xMidYMid meet">

<g transform="translate(0.000000,300.000000) scale(0.100000,-0.100000)"
fill="#09f" stroke="none">
<path d="M0 1500 l0 -1500 1500 0 1500 0 0 1500 0 1500 -1500 0 -1500 0 0
-1500z m1915 880 c199 -22 345 -90 476 -220 92 -91 143 -170 178 -277 33 -103
36 -144 11 -170 -23 -25 -67 -30 -93 -10 -9 6 -26 46 -38 87 -32 116 -81 200
-163 277 -127 121 -257 170 -466 177 -103 4 -116 7 -132 26 -36 44 -16 96 42
110 49 11 82 11 185 0z m75 -256 c184 -55 309 -180 355 -355 20 -73 19 -138
-2 -161 -20 -22 -76 -24 -97 -2 -16 16 -20 28 -31 99 -16 100 -95 209 -185
255 -56 29 -159 50 -246 50 -55 0 -74 4 -87 18 -32 36 -22 95 20 111 38 15
205 6 273 -15z m-520 -719 l0 -555 90 0 c142 0 130 -45 130 490 l0 450 96 0
c109 0 151 -14 189 -64 35 -46 42 -103 17 -158 -24 -56 -70 -85 -145 -94 l-57
-7 0 -108 0 -109 53 0 c67 0 145 21 201 54 57 34 129 114 152 171 18 45 20 46
54 40 106 -19 249 -124 303 -223 74 -136 74 -308 1 -443 -63 -115 -201 -209
-340 -229 -46 -7 -318 -10 -790 -8 l-719 3 -58 23 c-268 109 -343 447 -142
647 41 42 151 105 182 105 7 0 16 12 19 28 10 39 42 101 75 143 63 80 200 137
306 126 l52 -5 27 45 c39 67 133 155 211 196 37 20 74 37 81 37 9 0 12 -118
12 -555z"/>
</g>
</svg>
